<svg xmlns="http://www.w3.org/2000/svg" width="1600" height="1600" viewBox="-70 -70 1246 1246">
<rect x="-70" y="-70" width="1246" height="1246" fill="#1D2B35"/>
<g transform="translate(0,1084) scale(0.1,-0.1)" fill="none" stroke-linecap="round" stroke-linejoin="round">
<path d="M9755 5547 C9767 5115 9714 4682 9596 4267 C9359 3431 8866 2686 8191 2138 C8365 1520 8539 901 8712 283 C8392 432 8072 581 7752 730 C7681 1054 7610 1377 7539 1701 C7231 1534 6903 1406 6563 1320 C5796 1126 4980 1152 4227 1394 C3672 1572 3159 1865 2723 2250 C2590 1945 2457 1640 2324 1335 C1960 1229 1596 1124 1232 1018 C1542 1629 1852 2240 2162 2850 C2008 3051 1872 3266 1756 3492 C1762 3477 1769 3463 1776 3448 C1689 3438 1602 3429 1515 3420 C1466 3415 1417 3411 1369 3407 C1318 3402 1268 3397 1217 3393 C1153 3389 1088 3386 1024 3384 C931 3381 837 3380 745 3385 C725 3386 704 3389 684 3390 C626 3395 568 3401 510 3410 C484 3414 456 3418 430 3424 C402 3430 374 3438 345 3447 C309 3457 274 3467 238 3481 C138 3520 35 3586 -25 3677 C-44 3706 -59 3738 -69 3771 C-89 3839 -92 3912 -77 3981 C-72 4005 -64 4028 -56 4051 C-47 4078 -35 4105 -22 4131 C-2 4168 22 4205 46 4239 C88 4297 136 4352 187 4402 C218 4433 249 4462 282 4490 C313 4517 344 4545 377 4570 C496 4664 624 4748 752 4827 C930 4937 1113 5036 1300 5130 C1237 6041 1466 6944 1960 7712 C2508 8564 3347 9197 4319 9485 C4740 9609 5178 9667 5617 9657 C5717 9854 5816 10050 5916 10247 C5975 10038 6033 9829 6092 9621 C6561 9558 7018 9415 7440 9201 C8331 8747 9040 7987 9427 7065 C9437 7065 9446 7065 9456 7064 C9458 7064 9465 7065 9468 7064 C9468 7064 9468 7064 9468 7064 C9468 7064 9468 7064 9468 7064 C9468 7064 9468 7064 9468 7064 C9463 7059 9442 7062 9434 7062 C9434 7062 9434 7062 9434 7062 C9447 7059 9464 7060 9477 7060 C9490 7060 9503 7060 9516 7059 C9577 7057 9637 7053 9698 7047 C9731 7044 9764 7042 9796 7038 C9829 7034 9861 7029 9893 7024 C10046 7003 10200 6973 10347 6922 C10525 6860 10736 6752 10801 6562 C10833 6469 10827 6373 10788 6283 C10741 6173 10653 6078 10563 6000 C10471 5921 10370 5853 10267 5791 C10103 5692 9930 5610 9756 5531 C9756 5536 9755 5541 9755 5547 Z M9629 6459 C9680 6256 9716 6050 9736 5842 C9833 5888 9929 5936 10022 5990 C10094 6031 10166 6076 10231 6128 C10275 6162 10329 6211 10352 6264 C10419 6426 10085 6450 9998 6456 C9943 6460 9887 6462 9832 6462 C9765 6463 9697 6461 9629 6459 Z M7082 6092 C7402 4952 7722 3812 8042 2672 C8657 3155 9110 3820 9330 4572 C9429 4911 9479 5263 9480 5616 C9481 5895 9451 6173 9391 6445 C9045 6420 8699 6375 8356 6322 C7930 6257 7505 6178 7082 6092 Z M4070 5342 C3729 4559 3388 3777 3047 2995 C3442 2594 3923 2284 4452 2094 C5129 1850 5871 1807 6572 1968 C6863 2035 7146 2138 7413 2272 C7141 3511 6869 4750 6597 5989 C6179 5897 5762 5798 5347 5692 C4920 5583 4493 5466 4070 5342 Z M2093 4671 C2191 4299 2346 3943 2552 3618 C2804 4114 3055 4610 3307 5106 C2898 4974 2491 4832 2093 4671 Z M1594 3845 C1526 4015 1469 4189 1423 4366 C1372 4339 1322 4310 1273 4280 C1198 4234 892 4046 1035 3932 C1075 3901 1134 3885 1183 3874 C1242 3862 1304 3855 1365 3851 C1441 3846 1518 3845 1594 3845 Z M3809 6095 C4364 7188 4918 8281 5473 9374 C5081 9348 4694 9261 4329 9114 C3434 8756 2705 8059 2306 7181 C2057 6635 1945 6039 1975 5440 C2294 5575 2619 5698 2946 5813 C3232 5913 3520 6006 3809 6095 Z M6430 6753 C6238 7629 6045 8505 5853 9380 C5846 9380 5838 9381 5830 9381 C5381 8351 4932 7321 4483 6290 C4775 6371 5067 6446 5361 6517 C5716 6603 6072 6683 6430 6753 Z M9193 7070 C8829 7943 8143 8652 7282 9045 C6929 9207 6552 9312 6166 9357 C6402 8517 6637 7676 6873 6836 C7234 6900 7597 6953 7961 6994 C8370 7041 8781 7071 9193 7070 Z" fill="#EEE5E9" fill-opacity="0.35" stroke="none"/>
<path d="M10812 6522 C10699 7000 9731 7053 9452 7063 C9398 7065 9340 7069 9272 7069 C7885 7067 6504 6804 5179 6473 C4039 6187 2911 5845 1823 5375 C1579 5269 1448 5205 1254 5107 C1046 5001 -211 4385 -76 3801 C67 3185 1537 3421 1776 3448 L1596 3845 C1239 3842 1024 3886 1000 3983 C976 4077 1131 4209 1424 4366 C1572 4445 1754 4530 1969 4620 C2794 4965 4075 5374 5533 5739 C7122 6136 8550 6388 9434 6448 C9502 6453 9567 6457 9629 6459 C10066 6475 10331 6433 10358 6324 C10387 6211 10156 6042 9736 5841 L9756 5531 C9970 5627 10926 6036 10812 6522 Z" stroke="#2892D7" stroke-width="12"/>
<path d="M1232 1018 L2324 1335 L5845 9416 L7752 730 L8712 283 L5916 10247 Z" stroke="#2892D7" stroke-width="12"/>
<circle cx="5523.139626652531" cy="5424.893563611777" r="4233.51658501917" stroke="#2892D7" stroke-width="12"/>
<circle cx="5725.027111990582" cy="5627.329226189338" r="3755.047869104584" stroke="#2892D7" stroke-width="12"/>
<path d="M10064 2783 C10621 1686 10503 -219 9024 -467 C8897 -488 8617 -553 8508 -504 C8369 -441 8305 -208 8193 -109 C8019 46 7805 488 7752 730 C7906 687 8087 624 8281 532 C8449 451 8593 364 8712 283 C8811 276 9042 223 9103 242 C9888 491 9285 2330 9044 2798 C8863 3147 8639 3454 8338 3710 C7614 4325 6589 4573 5654 4578 C4471 4585 2853 3927 1776 3448 C1716 3581 1656 3713 1596 3845 C2158 3974 2720 4118 3276 4272 C5015 4754 6760 5245 8507 4337 C9163 3997 9729 3443 10064 2783 Z" stroke="#7fd0ff" stroke-width="8" stroke-dasharray="40 30"/>
<path d="M1778 1176 L5916 10247" stroke="#ffd166" stroke-width="16"/>
<path d="M5916 10247 L8232 506" stroke="#ffd166" stroke-width="16"/>
<path d="M1686 3647 C1406 3620 477 3518 456 3944 C465 4158 675 4320 833 4436 C1055 4595 1300 4721 1546 4839 C1937 5025 2342 5182 2749 5329 C3552 5618 4373 5855 5199 6066 C6078 6289 6964 6482 7862 6613 C8251 6670 8642 6714 9034 6739 C9419 6764 10237 6814 10525 6526 C10620 6419 10598 6311 10522 6200 C10342 5959 10013 5809 9746 5686" stroke="#D16666" stroke-width="16"/>
<path d="M8231.8 506.4 L8282.6 452.8 L8336.6 398.8 L8392.9 345.7 L8451.3 294.5 L8511.6 247.7 L8571.8 214.8 L8631.4 189.4 L8690.2 170.8 L8748.5 159.5 L8805.2 153.9 L8850.8 145.1 L8890.3 136.4 L8928.9 130.3 L8972.3 131.1 L9024.8 150.6 L9079.0 187.2 L9131.4 229.9 L9181.9 275.4 L9230.9 322.2 L9278.8 368.9 L9325.3 417.6 L9370.0 469.3 L9412.9 524.1 L9453.7 581.9 L9492.2 642.9 L9528.3 706.9 L9561.7 773.8 L9592.3 843.5 L9619.8 915.8 L9644.3 990.4 L9665.7 1067.1 L9683.9 1145.5 L9699.0 1225.5 L9711.0 1306.7 L9720.1 1389.1 L9726.2 1472.3 L9729.6 1556.1 L9730.1 1640.5 L9727.9 1725.2 L9723.0 1810.1 L9715.3 1895.0 L9704.6 1979.6 L9690.9 2063.9 L9674.7 2147.8 L9656.0 2231.4 L9635.0 2314.6 L9611.5 2397.2 L9585.7 2479.2 L9557.5 2560.5 L9526.9 2641.0 L9493.9 2720.7 L9458.6 2799.3 L9420.8 2876.9 L9380.6 2953.3 L9337.9 3028.5 L9292.7 3102.3 L9245.0 3174.5 L9194.8 3245.2 L9142.1 3314.2 L9087.4 3381.6 L9030.8 3447.6 L8972.3 3511.9 L8912.1 3574.7 L8850.1 3635.9 L8786.6 3695.4 L8721.5 3753.3 L8654.8 3809.6 L8586.8 3864.2 L8517.4 3917.1 L8446.6 3968.3 L8374.6 4017.8 L8301.4 4065.6 L8226.9 4111.7 L8151.4 4156.0 L8074.8 4198.6 L7997.2 4239.4 L7918.6 4278.3 L7839.0 4315.5 L7758.5 4350.8 L7677.9 4386.4 L7597.1 4422.1 L7515.4 4455.9 L7433.0 4487.6 L7349.7 4517.1 L7265.7 4544.3 L7180.9 4569.2 L7095.4 4591.5 L7009.3 4611.4 L6922.7 4628.7 L6835.6 4643.3 L6748.0 4655.3 L6660.2 4664.6 L6572.1 4671.3 L6483.8 4675.3 L6395.5 4676.8 L6307.2 4675.8 L6218.9 4672.4 L6130.7 4666.7 L6042.8 4658.7 L5955.0 4648.5 L5867.5 4636.4 L5780.3 4622.3 L5693.4 4606.5 L5606.8 4589.0 L5520.5 4569.9 L5434.5 4549.4 L5348.9 4527.7 L5263.6 4504.7 L5178.6 4480.6 L5093.9 4455.6 L5009.4 4429.8 L4925.1 4403.2 L4841.1 4376.0 L4757.2 4348.2 L4673.5 4320.0 L4589.9 4291.5 L4506.4 4262.7 L4422.9 4233.8 L4339.4 4204.8 L4255.9 4175.8 L4172.4 4147.0 L4088.8 4118.4 L4005.2 4090.1 L3921.3 4062.1 L3837.4 4034.7 L3753.2 4007.7 L3668.9 3981.4 L3584.3 3955.8 L3499.6 3931.0 L3414.5 3907.0 L3329.2 3883.9 L3243.7 3861.8 L3157.9 3840.8 L3071.9 3820.8 L2985.5 3801.9 L2899.0 3784.2 L2812.2 3767.6 L2725.2 3752.3 L2638.0 3738.1 L2550.6 3725.1 L2463.1 3713.2 L2375.4 3702.5 L2287.6 3692.8 L2199.7 3684.0 L2111.7 3676.2 L2023.6 3669.1 L1935.5 3662.7 L1847.3 3656.8 L1759.2 3651.2 L1685.7 3646.6" stroke="#06d6a0" stroke-width="16"/>
<circle cx="5523.139626652531" cy="5424.893563611777" r="4137.232178285494" stroke="#ff9f1c" stroke-width="10" stroke-dasharray="60 40"/>
<circle cx="5916.0" cy="10247.0" r="45" fill="#fff" stroke="none"/>
<circle cx="1778.0685944424977" cy="1176.389425179133" r="45" fill="#fff" stroke="none"/>
<circle cx="8231.846148827584" cy="506.48155233200663" r="45" fill="#fff" stroke="none"/>
<circle cx="1685.6796879226201" cy="3646.7020573552018" r="45" fill="#fff" stroke="none"/>
<circle cx="9745.869562954147" cy="5686.049238136006" r="45" fill="#fff" stroke="none"/>
<circle cx="1338.5377326193866" cy="4736.225283388741" r="45" fill="#fff" stroke="none"/>
<circle cx="9540.196546444298" cy="6760.7623984119255" r="45" fill="#fff" stroke="none"/>
<circle cx="5523.139626652531" cy="5424.893563611777" r="45" fill="#ff9f1c" stroke="none"/>
<circle cx="5725.027111990582" cy="5627.329226189338" r="45" fill="#2892D7" stroke="none"/>
<circle cx="1685.6796879226201" cy="3646.7020573552018" r="30" fill="#D16666" stroke="#fff" stroke-width="8"/>
<circle cx="463.61990645117453" cy="3893.5160717648864" r="30" fill="#D16666" stroke="#fff" stroke-width="8"/>
<circle cx="1339.350726008318" cy="4737.199692913195" r="30" fill="#D16666" stroke="#fff" stroke-width="8"/>
<circle cx="3836.2832916737852" cy="5688.142620250242" r="30" fill="#D16666" stroke="#fff" stroke-width="8"/>
<circle cx="6822.353357638778" cy="6434.87234062047" r="30" fill="#D16666" stroke="#fff" stroke-width="8"/>
<circle cx="9541.727225631681" cy="6759.285520509312" r="30" fill="#D16666" stroke="#fff" stroke-width="8"/>
<circle cx="10583.320880992913" cy="6418.50955317864" r="30" fill="#D16666" stroke="#fff" stroke-width="8"/>
<circle cx="9745.869562954143" cy="5686.049238136003" r="30" fill="#D16666" stroke="#fff" stroke-width="8"/>
<circle cx="8690.2" cy="170.8" r="30" fill="#06d6a0" stroke="#fff" stroke-width="8"/>
<circle cx="7918.6" cy="4278.3" r="30" fill="#06d6a0" stroke="#fff" stroke-width="8"/>
<circle cx="2812.2" cy="3767.6" r="30" fill="#06d6a0" stroke="#fff" stroke-width="8"/>
</g>
<g font-family="sans-serif" font-size="26" fill="#EEE5E9"><text x="-50" y="-30">grey: Logo.astro path   blue: source ring/bar/A transformed   dashed light blue: swash object</text><text x="-50" y="1160">yellow: leg centre-lines   red: bar centre-line   green: trail centre-line (from derive_trail.py)   dashed orange: thin growth circle</text></g>
</svg>