<svg xmlns="http://www.w3.org/2000/svg" version="1.1" xmlns:xlink="http://www.w3.org/1999/xlink" xmlns:svgjs="http://svgjs.com/svgjs" width="512" height="512"><svg version="1.1" id="SvgjsSvg1000" xmlns="http://www.w3.org/2000/svg" xmlns:xlink="http://www.w3.org/1999/xlink" x="0px" y="0px" viewBox="0 0 512 512" style="enable-background:new 0 0 512 512;" xml:space="preserve">
<style type="text/css">
	.st0{fill:#81D0D5;}
</style>
<path class="st0" d="M478.1,256.29c0,28.41-4.96,54.52-14.86,78.34c-9.91,23.82-24.4,44.33-43.5,61.53
	c-19.1,17.2-42.55,30.57-70.35,40.1c-27.81,9.53-59.61,14.29-95.41,14.29s-67.61-4.76-95.41-14.29
	c-27.81-9.53-51.2-22.89-70.17-40.1c-18.97-17.2-33.42-37.71-43.32-61.53c-9.91-23.82-14.86-49.93-14.86-78.34
	c0-28.23,4.95-54.21,14.86-77.94c9.9-23.73,24.35-44.15,43.32-61.27c18.97-17.11,42.37-30.44,70.17-39.96
	c27.8-9.53,59.61-14.29,95.41-14.29s67.61,4.76,95.41,14.29c27.8,9.53,51.25,22.85,70.35,39.96c19.09,17.11,33.59,37.54,43.5,61.27
	C473.14,202.08,478.1,228.06,478.1,256.29z M407.69,256.31c0-22.39-3.98-42.43-11.92-60.14c-7.95-17.71-18.85-32.71-32.7-45.02
	c-13.86-12.3-30.13-21.68-48.82-28.11c-18.69-6.43-38.78-9.65-60.25-9.65c-21.7,0-41.89,3.22-60.58,9.65
	c-18.69,6.43-34.91,15.8-48.65,28.11c-13.75,12.31-24.54,27.31-32.38,45.02c-7.85,17.71-11.76,37.75-11.76,60.14
	s3.92,42.48,11.76,60.26c7.84,17.78,18.63,32.83,32.38,45.14c13.74,12.31,29.97,21.71,48.65,28.23c18.69,6.51,38.88,9.77,60.58,9.77
	c21.48,0,41.57-3.25,60.25-9.77c18.69-6.51,34.96-15.92,48.82-28.23c13.86-12.3,24.76-27.35,32.7-45.14
	C403.71,298.79,407.69,278.7,407.69,256.31z"></path>
<path class="st0" d="M381.34,298.51c-36.29-83.25-83.22-178.19-102.97-258.18l-23.12-0.11l-23.12,0.11
	c-19.75,79.99-66.68,174.94-102.97,258.18c-36.32,83.31-69.01,140.03-74.41,152.03h78.69c1.86-6.2,7.28-20.51,15.53-42.92
	c8.25-22.41,18.21-47.92,29.88-76.54h0.01h152.78h0.01c11.68,28.62,21.64,54.14,29.88,76.54c8.25,22.41,13.68,36.72,15.53,42.92
	h78.69C450.35,438.54,417.66,381.83,381.34,298.51z M202.1,268.94l0.1-0.3c0.05-0.12,0.1-0.25,0.15-0.38
	c7.58-20.32,15.87-42.66,24.89-67.05c9.07-24.52,18.14-48.6,27.2-72.23l0.8,0.03l0.8-0.03c9.07,23.63,18.13,47.71,27.2,72.23
	c9.02,24.38,17.31,46.73,24.89,67.05c0.05,0.12,0.1,0.25,0.15,0.38l0.1,0.3H202.1z"></path>
</svg><style>@media (prefers-color-scheme: light) { :root { filter: none; } }
@media (prefers-color-scheme: dark) { :root { filter: none; } }
</style></svg>