<?xml version="1.0" standalone="no"?>
<!DOCTYPE svg PUBLIC "-//W3C//DTD SVG 20010904//EN"
 "http://www.w3.org/TR/2001/REC-SVG-20010904/DTD/svg10.dtd">
<svg version="1.0" xmlns="http://www.w3.org/2000/svg"
 width="1084.000000pt" height="1084.000000pt" viewBox="0 0 1084.000000 1084.000000"
 preserveAspectRatio="xMidYMid meet">
<metadata>
Created by potrace 1.14, written by Peter Selinger 2001-2017
</metadata>
<g transform="translate(0.000000,1084.000000) scale(0.100000,-0.100000)"
fill="#000000" stroke="none">
<path d="M5899 10217 c-8 -18 -75 -150 -149 -294 l-134 -263 -135 -1 c-75 0
-154 -2 -176 -4 -22 -2 -84 -6 -138 -10 -54 -3 -108 -8 -120 -10 -12 -2 -44
-6 -72 -10 -768 -93 -1528 -424 -2150 -934 -133 -108 -344 -312 -465 -446
-285 -317 -571 -766 -727 -1140 -14 -33 -31 -73 -38 -90 -27 -62 -87 -231
-124 -350 -34 -105 -86 -315 -105 -420 -21 -114 -34 -195 -41 -255 -4 -30 -8
-57 -10 -60 -2 -3 -6 -50 -10 -105 -4 -55 -9 -116 -11 -135 -2 -19 -4 -129 -5
-245 -1 -187 2 -260 16 -412 2 -25 -1 -45 -8 -51 -7 -5 -69 -39 -138 -75 -516
-269 -874 -557 -997 -802 -41 -82 -51 -124 -49 -208 6 -213 194 -349 557 -401
175 -25 545 -26 815 -1 129 12 173 16 212 21 36 5 44 2 50 -13 28 -76 268
-462 369 -594 l44 -57 -121 -238 c-116 -228 -278 -547 -616 -1213 -133 -261
-151 -303 -131 -297 12 4 52 16 88 25 60 17 363 105 523 152 l68 20 89 182
c48 100 135 279 192 397 57 118 142 292 187 386 l83 171 57 -56 c54 -55 237
-215 314 -276 21 -16 44 -35 50 -40 27 -23 158 -116 242 -172 331 -220 713
-401 1100 -520 166 -51 474 -120 618 -138 18 -2 48 -6 67 -9 37 -6 69 -9 210
-23 168 -16 660 -9 805 12 17 3 53 7 80 10 142 16 374 61 525 101 52 14 100
27 105 28 29 7 163 48 180 55 11 5 83 32 160 61 225 85 566 252 703 345 36 25
37 25 44 4 4 -11 10 -31 12 -45 3 -14 12 -48 20 -77 8 -29 17 -63 20 -77 2
-14 29 -117 59 -230 30 -113 75 -284 100 -380 25 -96 60 -229 78 -295 17 -66
32 -124 33 -130 1 -5 8 -33 16 -62 13 -51 14 -52 84 -84 39 -18 107 -49 151
-70 190 -89 380 -177 382 -175 0 0 -32 120 -73 266 -42 146 -90 319 -108 385
-129 463 -348 1245 -355 1266 -8 24 -1 32 90 110 192 164 443 430 605 644 262
345 504 797 634 1185 72 218 160 572 176 715 3 33 8 62 9 66 2 3 7 39 11 80 3
40 8 76 9 79 7 13 19 279 20 432 l0 166 40 18 c143 61 549 282 575 313 3 3 30
25 60 47 238 177 339 359 294 530 -51 196 -294 339 -685 403 -168 27 -180 29
-289 37 -52 4 -108 8 -125 10 -16 1 -57 2 -90 3 l-61 1 -38 93 c-53 130 -167
362 -239 486 -106 186 -307 476 -412 596 -15 17 -45 52 -68 80 -134 160 -391
403 -593 561 -110 86 -377 268 -469 319 -156 87 -201 111 -305 161 -368 177
-847 323 -1209 369 -25 3 -45 6 -46 8 -2 3 -46 158 -50 177 -3 13 -39 138
-105 370 -12 41 -22 76 -24 77 -1 1 -9 -12 -17 -30z m-543 -1070 c-79 -155
-228 -448 -331 -652 -103 -203 -252 -496 -330 -650 -78 -154 -220 -433 -315
-620 -263 -518 -541 -1067 -607 -1195 l-58 -114 -90 -28 c-580 -184 -1175
-398 -1619 -583 -76 -31 -140 -54 -143 -51 -22 22 -21 590 2 741 2 17 7 48 9
70 6 55 25 183 31 209 3 12 7 32 9 46 11 60 38 181 57 250 11 41 22 83 24 92
2 9 22 71 44 137 123 363 294 702 505 1001 358 508 841 927 1396 1212 428 220
942 368 1405 404 44 4 81 7 82 8 1 1 18 2 37 3 l36 1 -144 -281z m859 249 c28
-3 75 -10 105 -16 98 -17 125 -22 135 -24 6 -1 37 -8 70 -15 185 -39 457 -127
660 -213 920 -391 1663 -1137 2044 -2053 23 -53 41 -102 41 -109 0 -7 -37 -12
-112 -13 -130 -3 -362 -12 -428 -18 -25 -2 -85 -6 -135 -10 -84 -5 -111 -7
-237 -20 -122 -13 -146 -15 -193 -21 -27 -3 -70 -7 -95 -10 -25 -2 -97 -11
-160 -19 -63 -9 -133 -18 -155 -21 -49 -6 -185 -25 -205 -29 -8 -2 -37 -6 -65
-9 -27 -4 -57 -9 -65 -11 -8 -2 -37 -6 -65 -10 -27 -3 -57 -8 -65 -10 -8 -2
-33 -6 -55 -10 -22 -3 -94 -15 -160 -26 -66 -12 -129 -23 -141 -24 -19 -3 -27
20 -99 274 -94 332 -105 372 -110 391 -2 8 -33 121 -70 250 -36 129 -68 242
-69 250 -2 8 -61 218 -131 465 -70 248 -128 457 -131 465 -4 19 -36 135 -63
230 -12 41 -30 107 -41 145 -11 39 -30 107 -43 152 -14 46 -22 81 -18 79 4 -3
29 -7 56 -10z m-315 -381 c29 -110 53 -207 55 -215 2 -8 22 -85 45 -170 22
-85 43 -162 44 -170 2 -8 21 -77 41 -154 20 -76 38 -145 40 -155 2 -9 13 -52
25 -96 25 -92 80 -303 86 -325 7 -29 132 -507 163 -625 18 -66 34 -127 36
-135 2 -9 22 -87 45 -174 23 -87 38 -162 33 -167 -4 -4 -21 -10 -38 -13 -16
-3 -75 -15 -130 -26 -55 -12 -113 -24 -130 -26 -16 -3 -48 -10 -70 -16 -22 -5
-51 -12 -65 -15 -14 -2 -106 -22 -205 -44 -267 -60 -331 -75 -425 -99 -47 -11
-93 -23 -102 -25 -52 -12 -468 -118 -548 -140 -52 -14 -103 -28 -114 -30 -10
-3 -102 -27 -203 -55 -102 -28 -186 -50 -188 -48 -1 2 30 68 69 148 39 80 111
229 160 330 49 102 141 291 204 420 63 129 138 285 167 345 29 61 93 193 143
295 49 102 122 253 162 335 40 83 120 247 177 365 58 118 120 247 139 287 18
39 92 191 164 338 71 147 130 271 130 274 0 4 6 13 12 19 15 15 9 32 78 -233z
m4268 -2584 c97 -20 153 -48 178 -86 61 -93 -128 -262 -498 -445 -59 -30 -110
-52 -112 -49 -2 2 -7 38 -10 79 -4 41 -9 84 -11 95 -4 20 -12 72 -21 135 -2
19 -9 50 -14 70 -5 19 -11 51 -14 70 -3 19 -13 60 -21 90 -8 30 -15 59 -15 64
0 5 96 6 223 3 166 -4 245 -11 315 -26z m-729 -21 c19 -72 41 -198 56 -320 4
-30 9 -63 11 -73 25 -134 24 -667 -1 -850 -34 -248 -38 -277 -66 -402 -41
-188 -131 -479 -184 -600 -8 -16 -26 -59 -40 -95 -76 -184 -239 -477 -371
-667 -69 -98 -208 -281 -228 -298 -6 -5 -26 -28 -45 -50 -72 -86 -284 -297
-376 -375 -102 -86 -125 -102 -129 -89 -4 12 -54 192 -110 394 -8 28 -30 106
-50 175 -77 271 -98 346 -106 380 -7 29 -105 380 -156 555 -8 28 -46 163 -84
300 -39 138 -75 266 -80 285 -20 68 -161 574 -225 805 -8 28 -21 75 -30 105
-21 74 -21 73 -49 175 -13 50 -40 143 -58 207 l-34 117 65 15 c36 8 83 17 105
20 21 4 41 8 45 10 3 3 25 7 47 10 22 4 51 9 64 11 33 7 167 33 203 39 43 8
140 26 167 31 39 8 317 55 348 59 15 2 70 11 122 20 52 8 145 23 205 31 61 9
121 18 135 20 29 4 72 10 190 25 170 21 224 28 295 35 33 3 76 8 95 10 19 3
71 7 114 10 44 3 81 7 82 8 1 1 16 2 33 2 28 1 32 -3 40 -35z m-2725 -510 c13
-51 100 -384 113 -430 8 -30 19 -71 23 -90 4 -19 20 -80 35 -135 15 -55 29
-107 31 -115 2 -8 8 -33 14 -55 6 -22 12 -47 15 -56 2 -10 19 -77 39 -150 37
-143 95 -364 101 -389 11 -42 46 -174 65 -245 12 -44 23 -87 25 -95 2 -8 17
-67 33 -130 52 -198 114 -434 118 -450 2 -8 11 -42 20 -75 9 -33 17 -67 19
-75 2 -8 12 -49 23 -90 46 -169 94 -353 97 -369 1 -9 10 -41 19 -71 13 -47
110 -417 120 -460 2 -8 11 -41 19 -72 l15 -57 -43 -25 c-87 -52 -334 -174
-440 -219 -155 -66 -474 -170 -588 -193 -10 -2 -27 -6 -37 -9 -10 -3 -29 -8
-42 -10 -13 -3 -45 -9 -73 -15 -115 -22 -267 -44 -400 -56 -38 -3 -88 -8 -110
-10 -59 -5 -422 -5 -475 0 -25 2 -76 7 -115 11 -161 14 -377 48 -514 81 -36 9
-72 17 -80 19 -42 10 -174 49 -246 72 -44 15 -82 28 -85 28 -3 1 -14 5 -25 9
-11 5 -54 21 -95 36 -41 16 -88 36 -105 44 -16 9 -34 16 -38 16 -17 0 -329
161 -428 221 -189 113 -408 272 -564 409 -91 81 -325 315 -330 332 -4 10 22
74 61 155 37 76 68 140 69 143 1 8 125 264 135 280 6 8 14 25 19 36 13 30 101
213 216 449 54 110 121 250 150 310 29 61 104 216 167 345 63 129 147 304 188
387 l73 152 61 20 c104 34 567 165 906 257 177 47 928 239 970 248 14 2 63 14
110 26 47 11 92 22 100 24 27 7 385 88 400 91 8 2 38 9 65 15 72 17 86 20 125
26 19 3 37 8 40 11 4 4 17 -36 34 -107z m-3650 -1267 c-130 -258 -278 -549
-329 -648 -51 -99 -129 -254 -174 -344 -74 -148 -84 -162 -96 -145 -112 160
-293 521 -377 749 -76 207 -123 365 -111 375 20 19 520 209 848 323 348 122
450 156 463 156 7 1 -92 -205 -224 -466z m-1608 -393 c35 -121 65 -210 108
-322 l26 -68 -33 -1 c-56 -2 -70 -2 -177 5 -58 3 -116 8 -130 11 -14 3 -41 8
-60 11 -96 14 -180 63 -193 113 -8 31 27 94 79 145 69 66 314 228 338 222 4
-1 23 -53 42 -116z"/>
</g>
</svg>
