<?xml version="1.0" standalone="no"?>
<!DOCTYPE svg PUBLIC "-//W3C//DTD SVG 20010904//EN"
 "http://www.w3.org/TR/2001/REC-SVG-20010904/DTD/svg10.dtd">
<svg version="1.0" xmlns="http://www.w3.org/2000/svg"
 width="700.000000pt" height="700.000000pt" viewBox="0 0 700.000000 700.000000"
 preserveAspectRatio="xMidYMid meet">
<metadata>
Created by potrace 1.14, written by Peter Selinger 2001-2017
</metadata>
<g transform="translate(0.000000,700.000000) scale(0.100000,-0.100000)"
fill="#000000" stroke="none">
<path d="M3166 6423 c-4 -16 -8 -37 -11 -48 -7 -32 -66 -240 -69 -243 -5 -5
-39 -10 -116 -16 -91 -8 -267 -32 -300 -41 -8 -2 -31 -7 -50 -10 -81 -14 -293
-68 -395 -101 -521 -170 -940 -438 -1232 -789 -105 -126 -138 -172 -215 -295
-36 -58 -140 -263 -172 -340 -24 -60 -94 -268 -99 -300 -3 -14 -12 -52 -20
-85 -9 -33 -18 -77 -21 -99 -4 -21 -8 -41 -11 -45 -2 -4 -7 -39 -10 -77 -4
-38 -9 -72 -11 -75 -8 -13 -18 -214 -18 -364 0 -146 9 -321 19 -372 2 -12 6
-43 10 -70 22 -166 103 -473 154 -588 5 -11 24 -54 42 -95 109 -247 256 -467
450 -671 l66 -69 -37 -73 c-84 -165 -233 -453 -240 -462 -9 -11 -111 -211
-122 -238 -7 -16 22 -17 530 -17 l537 0 39 118 c22 64 46 129 53 144 l13 26
92 -37 c127 -52 316 -112 428 -136 8 -2 53 -12 100 -23 47 -11 119 -25 160
-32 41 -6 89 -14 105 -17 48 -8 75 -11 165 -18 47 -4 94 -9 105 -12 36 -9 638
-10 730 -2 190 17 265 25 320 34 17 2 48 7 70 10 223 32 550 123 759 211 44
19 81 32 83 30 7 -6 103 -274 103 -286 0 -7 172 -10 540 -10 l539 0 -12 28
c-15 33 -70 139 -107 207 -48 88 -156 295 -229 439 l-70 139 27 27 c175 177
311 368 422 589 184 366 274 762 274 1211 0 168 -12 357 -28 445 -3 17 -8 53
-12 80 -3 28 -8 53 -10 56 -2 3 -6 20 -9 38 -31 174 -119 431 -215 621 -193
383 -495 708 -877 943 -104 64 -296 162 -393 202 -36 14 -74 30 -85 35 -44 21
-296 100 -395 124 -183 44 -367 76 -535 91 -38 4 -73 10 -77 14 -6 6 -55 171
-79 269 l-13 52 -317 0 -317 0 -6 -27z m-346 -1062 c0 -9 -167 -428 -228 -571
-22 -52 -60 -142 -85 -200 -49 -116 -147 -340 -179 -410 -11 -25 -38 -85 -60
-135 -22 -49 -53 -118 -69 -153 -16 -35 -29 -65 -29 -67 0 -2 -15 -36 -34 -77
-19 -40 -100 -221 -181 -403 -81 -181 -153 -343 -160 -360 -8 -16 -41 -91 -73
-165 -33 -74 -74 -166 -92 -205 l-33 -70 -42 90 c-80 171 -118 301 -159 549
-18 107 -25 387 -12 506 4 36 9 87 12 114 2 27 12 83 20 125 9 42 18 86 20 98
12 64 83 253 136 361 222 452 597 772 1101 938 143 47 147 48 147 35z m1520
-59 c603 -219 1036 -701 1180 -1316 10 -44 21 -101 25 -126 3 -25 8 -63 12
-85 11 -73 13 -109 13 -280 -1 -168 -2 -186 -15 -295 -7 -63 -40 -226 -57
-285 -6 -22 -12 -44 -14 -50 -8 -34 -47 -132 -80 -204 l-38 -84 -29 64 c-16
35 -98 219 -182 409 -155 351 -505 1136 -550 1235 -90 196 -445 1050 -445
1070 0 5 112 -29 180 -53z m-804 -159 c20 -54 56 -147 79 -208 24 -60 79 -209
124 -330 45 -121 95 -254 112 -296 16 -42 29 -79 29 -83 0 -5 6 -22 14 -39 8
-18 60 -156 115 -307 56 -151 108 -291 116 -310 26 -66 85 -230 85 -238 0 -5
-324 -8 -720 -8 -396 0 -720 4 -720 8 0 8 60 178 79 223 5 11 17 43 26 70 10
28 23 64 30 80 7 17 79 210 160 430 81 220 206 553 277 740 70 187 130 346
133 353 10 28 25 7 61 -85z m1106 -2937 c59 -147 110 -276 113 -286 4 -14 -6
-26 -39 -49 -134 -93 -423 -216 -601 -257 -5 -1 -40 -9 -78 -18 -77 -18 -121
-26 -237 -41 -169 -23 -509 -23 -668 1 -330 48 -599 136 -834 271 -43 25 -80
48 -82 52 -4 6 126 349 169 446 7 17 23 55 35 85 12 30 25 57 30 60 4 3 475 5
1046 4 l1038 -1 108 -267z"/>
</g>
</svg>
